<svg width="40" height="41" viewBox="0 0 40 41" fill="none" xmlns="http://www.w3.org/2000/svg">
<g clip-path="url(#clip0_2_33)" filter="url(#filter0_d_2_33)">
<path d="M35.6593 16.5781C35.6593 25.467 28.5267 32.5781 19.8923 32.5781C11.2581 32.5781 4.00024 25.467 4.00024 16.5781C4.00024 7.68925 11.1329 0.578125 19.7672 0.578125C28.4015 0.578125 35.6593 7.68925 35.6593 16.5781Z" fill="url(#paint0_linear_2_33)"/>
<path d="M8.67003 17.6471C8.67614 17.5942 8.71365 17.557 8.76091 17.557C8.80646 17.557 8.8442 17.5942 8.85127 17.6468L9.0476 18.9238L8.85127 20.1791C8.84397 20.2317 8.80669 20.2683 8.76091 20.2683C8.71362 20.2683 8.67614 20.2314 8.67003 20.1786L8.50439 18.9238L8.67003 17.6471Z" fill="white"/>
<path d="M9.59841 16.7669C9.64615 16.7669 9.68488 16.8048 9.69268 16.8596L9.94575 18.9239L9.69243 20.943C9.68465 20.9977 9.6459 21.0357 9.59841 21.0357C9.55019 21.0357 9.51048 20.9966 9.50414 20.9425L9.28149 18.9239L9.50414 16.8596C9.51071 16.806 9.55042 16.7669 9.59841 16.7669Z" fill="white"/>
<path d="M13.0303 15.1279C13.0347 15.0315 13.1102 14.9555 13.2016 14.9555C13.2924 14.9555 13.3677 15.0315 13.3731 15.1279L13.5735 18.9257L13.3731 21.3803V21.3796C13.3677 21.4758 13.2924 21.5517 13.2016 21.5517C13.1102 21.5517 13.0349 21.476 13.0303 21.3801L12.853 18.9257L13.0303 15.1279Z" fill="white"/>
<path d="M11.2522 16.4083C11.2579 16.3324 11.3151 16.2756 11.3853 16.2756C11.4547 16.2756 11.5119 16.3324 11.518 16.4078L11.745 18.9247L11.518 21.3593C11.5119 21.4347 11.4547 21.4916 11.3853 21.4916C11.3151 21.4916 11.2576 21.4347 11.2522 21.3593L11.0525 18.9247L11.2522 16.4083Z" fill="white"/>
<path d="M15.2565 21.34C15.2519 21.4587 15.1598 21.5514 15.0466 21.5514C14.9325 21.5514 14.8402 21.4584 14.8366 21.3408L14.6824 18.9266L14.8366 13.8709C14.8403 13.7522 14.9326 13.6593 15.0468 13.6593C15.1601 13.6593 15.2522 13.752 15.2568 13.8706L15.4305 18.9269L15.2565 21.34Z" fill="white"/>
<path d="M19.1123 21.2725C19.1094 21.4326 18.9808 21.5629 18.8249 21.5629C18.6689 21.5629 18.5399 21.4326 18.5374 21.2739C18.5374 21.2739 18.429 18.9303 18.429 18.9266L18.5374 13.0891C18.5398 12.9287 18.6687 12.7984 18.8249 12.7984C18.9808 12.7984 19.1096 12.929 19.1123 13.0889L19.2336 18.9285L19.1123 21.2725Z" fill="white"/>
<path d="M17.1702 21.3022C17.1665 21.4431 17.0571 21.5536 16.9214 21.5536C16.7848 21.5536 16.6755 21.4431 16.6725 21.3037L16.541 18.9277L16.6723 13.8345C16.6752 13.6936 16.7846 13.5833 16.9213 13.5833C17.0569 13.5833 17.1662 13.6936 17.1699 13.8345L17.3178 18.9274L17.1702 21.3039V21.3022Z" fill="white"/>
<path d="M12.442 21.3793C12.4359 21.4656 12.3707 21.5311 12.29 21.5311C12.2082 21.5311 12.1432 21.4656 12.1378 21.379L11.9495 18.9244L12.1378 16.5902C12.1429 16.5034 12.2082 16.4378 12.29 16.4378C12.3709 16.4378 12.4362 16.5029 12.442 16.5891L12.6559 18.9244L12.442 21.3793Z" fill="white"/>
<path d="M10.6016 21.2844C10.5947 21.3497 10.547 21.3969 10.4881 21.3969C10.4281 21.3969 10.3804 21.3494 10.3745 21.284L10.1631 18.9242L10.3745 16.475C10.3806 16.4098 10.4283 16.3623 10.488 16.3623C10.547 16.3623 10.5947 16.4096 10.6018 16.475L10.8417 18.9242L10.6016 21.2844Z" fill="white"/>
<path d="M17.6007 14.0207C17.6037 13.8684 17.7218 13.7495 17.8692 13.7495C18.0163 13.7495 18.1337 13.8684 18.1371 14.0202L18.2716 18.928L18.1371 21.2892V21.2872C18.1337 21.4394 18.0163 21.5581 17.8692 21.5581C17.7216 21.5581 17.6037 21.4392 17.6007 21.2889L17.481 18.9278L17.6007 14.0207Z" fill="white"/>
<path d="M14.3115 21.3645C14.3066 21.472 14.2226 21.5564 14.1208 21.5564C14.018 21.5564 13.9342 21.472 13.93 21.3655L13.7642 18.9265L13.9298 14.2599C13.9342 14.1524 14.018 14.0681 14.1208 14.0681C14.2226 14.0681 14.3064 14.1521 14.3115 14.2599L14.4986 18.9265L14.3115 21.3645Z" fill="white"/>
<path d="M16.2098 21.3259V21.3256C16.2054 21.4545 16.1051 21.5558 15.9806 21.5558C15.8557 21.5558 15.7548 21.4541 15.7514 21.3257L15.6084 18.9266L15.7512 13.7002C15.7545 13.5702 15.8554 13.4686 15.9806 13.4686C16.1051 13.4686 16.2059 13.5704 16.2098 13.7002L16.3706 18.9269L16.2098 21.3246V21.3256C16.2098 21.3253 16.2098 21.3251 16.2098 21.3249V21.3259Z" fill="white"/>
<path d="M27.2915 16.1339C27.6233 15.9928 27.9875 15.9145 28.3692 15.9145C29.9077 15.9145 31.1549 17.1805 31.1549 18.7421C31.1549 20.3036 29.9075 21.5695 28.369 21.5695C28.3192 21.5695 20.6534 21.5656 20.6463 21.5648C20.4799 21.5477 20.3477 21.4036 20.3455 21.2306V12.2575C20.3475 12.0926 20.4035 12.0076 20.6137 11.925C21.1547 11.7127 21.7674 11.5871 22.3958 11.5871C24.9643 11.5871 27.0698 13.5859 27.2915 16.1339Z" fill="white"/>
<path d="M19.4687 12.5601C19.4712 12.3889 19.6086 12.2495 19.7759 12.2495C19.9428 12.2495 20.0801 12.3889 20.0826 12.5597L20.2192 18.9291L20.0826 21.2409V21.2381C20.0801 21.4095 19.9428 21.5486 19.7759 21.5486C19.6086 21.5486 19.4712 21.4095 19.469 21.2406L19.343 18.9291L19.4687 12.5601Z" fill="white"/>
</g>
<defs>
<filter id="filter0_d_2_33" x="0" y="0.578125" width="40" height="40" filterUnits="userSpaceOnUse" color-interpolation-filters="sRGB">
<feFlood flood-opacity="0" result="BackgroundImageFix"/>
<feColorMatrix in="SourceAlpha" type="matrix" values="0 0 0 0 0 0 0 0 0 0 0 0 0 0 0 0 0 0 127 0" result="hardAlpha"/>
<feOffset dy="4"/>
<feGaussianBlur stdDeviation="2"/>
<feComposite in2="hardAlpha" operator="out"/>
<feColorMatrix type="matrix" values="0 0 0 0 0 0 0 0 0 0 0 0 0 0 0 0 0 0 0.25 0"/>
<feBlend mode="normal" in2="BackgroundImageFix" result="effect1_dropShadow_2_33"/>
<feBlend mode="normal" in="SourceGraphic" in2="effect1_dropShadow_2_33" result="shape"/>
</filter>
<linearGradient id="paint0_linear_2_33" x1="19.8298" y1="0.578125" x2="19.8298" y2="32.5781" gradientUnits="userSpaceOnUse">
<stop stop-color="#FF7602"/>
<stop offset="1" stop-color="#FF3502"/>
</linearGradient>
<clipPath id="clip0_2_33">
<rect width="32" height="32" fill="white" transform="translate(4 0.578125)"/>
</clipPath>
</defs>
</svg>
